<svg id="Layer_2" data-name="Layer 2" xmlns="http://www.w3.org/2000/svg" xmlns:xlink="http://www.w3.org/1999/xlink" width="4in" height="2.54in" viewBox="0 0 287.85 183"><defs><style>.cls-1{fill:none;}.cls-2{fill:#955903;}.cls-3{clip-path:url(#clip-path);}.cls-4{fill:#006e2b;}.cls-5{fill:#b1d577;}.cls-6{fill:#fff;}.cls-7{clip-path:url(#clip-path-2);}.cls-8{fill:#006fba;}.cls-9{fill:#18428f;}.cls-10{fill:#a9b3b6;}.cls-11{fill:#613f7e;}.cls-12{fill:#f04e36;}.cls-13{fill:#9a1220;}.cls-14{fill:#d51c29;}.cls-15{fill:#ffe100;}.cls-16{fill:#f58238;}.cls-17{fill:#ffc63e;}.cls-18{fill:#231f20;}</style><clipPath id="clip-path" transform="translate(-9.65 -9.5)"><path class="cls-1" d="M196.17,96.24l-25,3.08c-.66-3.49-1.75-6-3.3-7.4a8,8,0,0,0-5.7-2.15q-6.09,0-9.49,6.16-2.46,4.44-3.63,19a32,32,0,0,1,9.24-6.75,26.07,26.07,0,0,1,11-2.19,27.36,27.36,0,0,1,20.43,8.63q8.36,8.64,8.35,21.88a32.39,32.39,0,0,1-4.22,16.33A27.64,27.64,0,0,1,182.15,164q-7.49,3.8-18.77,3.79-13.55,0-21.75-4.62t-13.1-14.76q-4.89-10.14-4.9-26.84,0-24.46,10.3-35.84t28.53-11.37q10.78,0,17,2.49a26.25,26.25,0,0,1,10.38,7.31A32.28,32.28,0,0,1,196.17,96.24ZM150,136.48q0,7.34,3.7,11.49a11.63,11.63,0,0,0,9.06,4.16,10.58,10.58,0,0,0,8.25-3.75q3.33-3.76,3.33-11.22,0-7.65-3.45-11.65a10.84,10.84,0,0,0-8.56-4,11.42,11.42,0,0,0-8.79,3.88Q150,129.28,150,136.48Z"/></clipPath><clipPath id="clip-path-2" transform="translate(-9.65 -9.5)"><path class="cls-1" d="M193.28,93.77a24,24,0,0,1-8.63-7,20.75,20.75,0,0,1-3.7-12.2Q181,63.2,191.61,56q8.32-5.55,22-5.55,18.12,0,26.78,6.9t8.66,17.38a20.55,20.55,0,0,1-3.45,11.41,28.41,28.41,0,0,1-8.14,7.64,25.27,25.27,0,0,1,10.94,9.3A23.76,23.76,0,0,1,252,115.89a26.78,26.78,0,0,1-3.11,12.67,25.52,25.52,0,0,1-7.65,9.09A31.11,31.11,0,0,1,230,142.36a65.62,65.62,0,0,1-14.39,1.51q-14.37,0-21.94-3.39a24.75,24.75,0,0,1-11.53-10,28.16,28.16,0,0,1-3.94-14.73,23.61,23.61,0,0,1,3.7-13.47Q185.57,96.79,193.28,93.77Zm9.92,21.14a13.52,13.52,0,0,0,3.63,9.76,11.24,11.24,0,0,0,8.32,3.79,10.8,10.8,0,0,0,8.08-3.85,15.13,15.13,0,0,0,0-19.56,11.17,11.17,0,0,0-8.35-3.82,10.88,10.88,0,0,0-8.17,3.69Q203.2,108.63,203.2,114.91ZM204.55,76a10.1,10.1,0,0,0,2.93,7.55,10.66,10.66,0,0,0,7.8,2.86,9.5,9.5,0,0,0,7.09-2.83,10.09,10.09,0,0,0,2.77-7.34,10.38,10.38,0,0,0-2.9-7.61,10.94,10.94,0,0,0-14.82-.06A10.06,10.06,0,0,0,204.55,76Z"/></clipPath></defs><title>logo</title><polygon points="31.68 0 31.68 183 287.85 91.5 31.68 0"/><polygon class="cls-2" points="97.57 98.77 102.82 104.39 110.61 104.39 110.61 98.68 97.57 98.77"/><g class="cls-3"><polygon class="cls-4" points="182.66 112.46 135.89 151.75 125.16 127.57 131.29 108.23 165.03 101.58 182.66 112.46"/><polygon class="cls-5" points="159.31 76.43 166.83 72.06 154 63.64 140.22 65.62 126.91 74.54 119.3 91.88 118.83 102.78 125.48 105.75 156.03 95.84 159.31 76.43"/><path d="M201.35,161.36l-10.95.06-20.9-.23L165.68,153,149,155l-14.33-2-11,10.33S127.35,177,132.35,179s51.33-1.33,51.33-1.33L199,168.36Z" transform="translate(-9.65 -9.5)"/></g><path class="cls-6" d="M190.57,91.09l-25,3.08q-1-5.23-3.3-7.39a8,8,0,0,0-5.7-2.16q-6.11,0-9.49,6.16-2.46,4.44-3.64,19a31.88,31.88,0,0,1,9.25-6.74,25.91,25.91,0,0,1,11-2.19,27.32,27.32,0,0,1,20.43,8.63q8.34,8.63,8.35,21.87a32.43,32.43,0,0,1-4.22,16.34,27.62,27.62,0,0,1-11.71,11.18q-7.5,3.79-18.77,3.79-13.56,0-21.75-4.62t-13.1-14.76Q118,133.12,118,116.42,118,92,128.32,80.58t28.54-11.37q10.78,0,17,2.5A26.23,26.23,0,0,1,184.28,79,32.51,32.51,0,0,1,190.57,91.09Zm-46.22,40.24q0,7.33,3.69,11.5A11.69,11.69,0,0,0,157.1,147a10.58,10.58,0,0,0,8.26-3.76q3.33-3.76,3.33-11.22,0-7.63-3.45-11.64a10.84,10.84,0,0,0-8.57-4,11.4,11.4,0,0,0-8.78,3.88Q144.35,124.13,144.35,131.33Z" transform="translate(-9.65 -9.5)"/><g class="cls-7"><polygon class="cls-8" points="231.16 88.98 188.59 125 174.66 94.67 180.85 80.76 205.62 79.5 231.16 88.98"/><polygon class="cls-9" points="249.83 81.5 223.83 85 221.33 107 215.33 121.5 195.33 123.5 178.83 123 177.83 136 213.83 142 235.33 132.5 251.33 110.5 249.83 81.5"/><path class="cls-10" d="M223,72.89l11.69-6.67L231,54.55l-16.61-3.88-17.84,2.22-10.46,10L183,74l2.34,8,11.19,2s11.69-3.89,16-3.89S223,72.89,223,72.89Z" transform="translate(-9.65 -9.5)"/><path class="cls-11" d="M229.65,45l3,15.5s-1,12-1,14-6.5,14-6.5,14l1.5,6.5,10.5,1.5,17-.5,6-11-1-22-10-17Z" transform="translate(-9.65 -9.5)"/></g><path class="cls-6" d="M187.51,88.75a24,24,0,0,1-8.63-7,20.75,20.75,0,0,1-3.7-12.2q0-11.34,10.66-18.55,8.32-5.55,22-5.55,18.12,0,26.78,6.91t8.66,17.38a20.54,20.54,0,0,1-3.45,11.4,28.41,28.41,0,0,1-8.14,7.64,25.27,25.27,0,0,1,10.94,9.3,23.76,23.76,0,0,1,3.61,12.82,26.78,26.78,0,0,1-3.11,12.67,25.52,25.52,0,0,1-7.65,9.09,31,31,0,0,1-11.27,4.71,65.62,65.62,0,0,1-14.39,1.51q-14.37,0-21.94-3.39a24.75,24.75,0,0,1-11.53-10,28.16,28.16,0,0,1-3.94-14.73,23.69,23.69,0,0,1,3.69-13.47Q179.81,91.78,187.51,88.75Zm9.92,21.14a13.56,13.56,0,0,0,3.63,9.77,11.27,11.27,0,0,0,8.32,3.79,10.82,10.82,0,0,0,8.08-3.86,15.13,15.13,0,0,0,0-19.56,11.17,11.17,0,0,0-8.35-3.82,10.88,10.88,0,0,0-8.17,3.69Q197.43,103.61,197.43,109.89ZM198.78,71a10.1,10.1,0,0,0,2.93,7.55,10.66,10.66,0,0,0,7.8,2.86,9.46,9.46,0,0,0,7.08-2.83,10,10,0,0,0,2.78-7.33,10.38,10.38,0,0,0-2.9-7.62,10.94,10.94,0,0,0-14.82-.06A10.06,10.06,0,0,0,198.78,71Z" transform="translate(-9.65 -9.5)"/><path class="cls-12" d="M41.25,74.69s2.31-24,19.88-14.94l.56.94.94-.69-2.07-8.06L48.81,47.13l-20.62,4L11.5,64.54l4.75,7.71Z" transform="translate(-9.65 -9.5)"/><polygon class="cls-13" points="0 118.11 5.48 125.15 82.32 125.15 82.32 102.35 75.37 97.67 75.37 117.85 0 118.11"/><polygon class="cls-14" points="34.72 98 47.58 98 61.18 87.61 56 81.21 34.72 98"/><path class="cls-6" d="M85,127.59H9.65a47.08,47.08,0,0,1,7.86-21q6.55-9.83,24.62-23.2,11-8.2,14.11-12.45a13.93,13.93,0,0,0,3.08-8.08,9.39,9.39,0,0,0-3-7.05A10.64,10.64,0,0,0,48.6,52.9a10.73,10.73,0,0,0-7.86,3q-3,3-4.09,10.66l-25.15-2Q13,53.94,16.92,48a25.22,25.22,0,0,1,11.13-9.12q7.17-3.18,19.87-3.17,13.26,0,20.62,3A25.1,25.1,0,0,1,80.12,48a24.46,24.46,0,0,1,4.23,14A28.75,28.75,0,0,1,79.51,77.8q-4.85,7.52-17.6,16.51-7.57,5.25-10.14,7.34t-6,5.48H85Z" transform="translate(-9.65 -9.5)"/><polygon class="cls-15" points="119.43 7 119.43 62.71 126.06 62.71 126.06 12.45 119.43 7"/><path class="cls-6" d="M107.23,91.43H61.51V70.78l45.72-54.36h21.88V72h11.34V91.43H129.11v16.88H107.23Zm0-19.48V43.52L83.07,72Z" transform="translate(-9.65 -9.5)"/><polygon class="cls-16" points="97.58 81.91 97.58 87.91 60.89 87.91 56.24 81.91 97.58 81.91"/><polygon class="cls-17" points="82.27 62.57 73.14 62.57 97.61 33.71 97.61 45.23 82.27 62.57"/><path class="cls-18" d="M181.52,156H178l-.48,1.66h-3.17l3.77-10h3.38l3.76,10H182Zm-.64-2.16-1.11-3.61-1.09,3.61Z" transform="translate(-9.65 -9.5)"/><path class="cls-18" d="M189,147.65h5.14a3.5,3.5,0,0,1,2.52.8,3,3,0,0,1,.84,2.27,3.12,3.12,0,0,1-.91,2.37,4,4,0,0,1-2.79.86h-1.69v3.72H189Zm3.11,4.27h.75a2,2,0,0,0,1.26-.31,1,1,0,0,0,.36-.8,1.12,1.12,0,0,0-.31-.8,1.62,1.62,0,0,0-1.18-.33h-.88Z" transform="translate(-9.65 -9.5)"/><path class="cls-18" d="M202,147.65h5.14a3.5,3.5,0,0,1,2.52.8,3,3,0,0,1,.84,2.27,3.12,3.12,0,0,1-.91,2.37,4,4,0,0,1-2.79.86h-1.69v3.72H202Zm3.11,4.27h.75a2,2,0,0,0,1.26-.31,1,1,0,0,0,.36-.8,1.12,1.12,0,0,0-.31-.8,1.62,1.62,0,0,0-1.18-.33h-.88Z" transform="translate(-9.65 -9.5)"/><path class="cls-18" d="M214.91,157.67v-10h5.16a7.73,7.73,0,0,1,2.2.24,2.4,2.4,0,0,1,1.22.91,2.83,2.83,0,0,1-.87,4,3.59,3.59,0,0,1-1.09.39,3.5,3.5,0,0,1,.81.37,3.42,3.42,0,0,1,.49.53,4,4,0,0,1,.44.62l1.5,2.91h-3.5l-1.66-3.07a2.33,2.33,0,0,0-.56-.77,1.31,1.31,0,0,0-.76-.23H218v4.07Zm3.11-6h1.31a5,5,0,0,0,.82-.14.83.83,0,0,0,.5-.32.9.9,0,0,0,.19-.58.92.92,0,0,0-.3-.74,1.9,1.9,0,0,0-1.16-.26H218Z" transform="translate(-9.65 -9.5)"/><path class="cls-18" d="M228.55,147.65h8.3v2.14h-5.19v1.59h4.82v2h-4.82v2H237v2.27h-8.45Z" transform="translate(-9.65 -9.5)"/><path class="cls-18" d="M248.14,153.57l2.72.82a5,5,0,0,1-.87,1.9,3.68,3.68,0,0,1-1.46,1.16,5.43,5.43,0,0,1-2.21.39,6.38,6.38,0,0,1-2.67-.48,4.17,4.17,0,0,1-1.79-1.67,5.64,5.64,0,0,1-.75-3.06,5.2,5.2,0,0,1,1.32-3.82,6,6,0,0,1,6.72-.57,4.49,4.49,0,0,1,1.61,2.35l-2.73.61a2.22,2.22,0,0,0-.31-.67,1.75,1.75,0,0,0-.63-.55,1.92,1.92,0,0,0-.84-.19,1.83,1.83,0,0,0-1.62.85,3.61,3.61,0,0,0-.42,2,3.76,3.76,0,0,0,.51,2.29,1.72,1.72,0,0,0,1.42.61,1.69,1.69,0,0,0,1.34-.5A3,3,0,0,0,248.14,153.57Z" transform="translate(-9.65 -9.5)"/><path class="cls-18" d="M255.28,147.65h3.11v10h-3.11Z" transform="translate(-9.65 -9.5)"/><path class="cls-18" d="M269.57,156h-3.52l-.49,1.66H262.4l3.77-10h3.38l3.76,10h-3.24Zm-.64-2.16-1.11-3.61-1.09,3.61Z" transform="translate(-9.65 -9.5)"/><path class="cls-18" d="M275.43,147.65h9.41v2.47h-3.16v7.55h-3.09v-7.55h-3.16Z" transform="translate(-9.65 -9.5)"/><path class="cls-18" d="M289,147.65h8.3v2.14h-5.2v1.59H297v2h-4.82v2h5.35v2.27H289Z" transform="translate(-9.65 -9.5)"/></svg>